<!DOCTYPE svg PUBLIC "-//W3C//DTD SVG 1.1//EN" "http://www.w3.org/Graphics/SVG/1.1/DTD/svg11.dtd">
<!-- Uploaded to: SVG Repo, www.svgrepo.com, Transformed by: SVG Repo Mixer Tools -->
<svg fill="#ffffff" width="800px" height="800px" viewBox="-6.4 -6.4 76.80 76.80" xmlns="http://www.w3.org/2000/svg" stroke="#ffffff" stroke-width="1.408">
<g id="SVGRepo_bgCarrier" stroke-width="0">
<path transform="translate(-6.4, -6.4), scale(2.4)" d="M16,27.471429085092886C18.17545945321628,27.353460960544318,19.990140705357124,30.268775803144532,22.082370665000997,29.661228186108488C24.063831727389292,29.085845952833985,24.56806143593719,26.44098297204769,25.63348649140113,24.674030197546188C26.560218496858717,23.137092728444173,27.45102898425504,21.60741657953075,27.973836068199738,19.890535178022077C28.491303564293638,18.191188808754326,28.92516241556854,16.426688785906457,28.680660916634935,14.667208831693735C28.438629526579092,12.925504257485244,27.264896344734375,11.510581456746298,26.58404091302701,9.889301129749846C25.818896363763326,8.0673081672806,25.84428939563611,5.789961934301483,24.390543197612093,4.45140803987433C22.94537865546926,3.1207558059406013,20.7369086706187,3.162871708411199,18.818662113723875,2.739237351328498C16.889384891868843,2.3131669316646777,14.85453401100569,1.227412451981536,13.011097459574996,1.9383191140198655C11.122068378696984,2.6668081728584117,10.702888322156868,5.265449353343282,9.091031587955548,6.49062078855558C7.522615443273523,7.682773055079668,4.739389502946234,7.2242740164426245,3.787545411746839,8.949136056005948C2.8288540246964278,10.686406262827203,4.602746474517433,12.810274172209978,4.50983197326333,14.792334676475706C4.423199064186908,16.640395690982142,2.9764968775230733,18.310727830165494,3.2630135108333906,20.138497780982643C3.5529652392493762,21.988181166771437,5.106914757904096,23.3276586584462,6.096914370913426,24.91677835145736C7.2486337752256516,26.76548613090009,7.507597420909087,29.79313687236456,9.61666595593966,30.337203003074208C11.9000514698205,30.926236835224003,13.645322440900799,27.599115627424375,16,27.471429085092886" fill="#000000" strokewidth="0"/>
</g>
<g id="SVGRepo_tracerCarrier" stroke-linecap="round" stroke-linejoin="round"/>
<g id="SVGRepo_iconCarrier">
<title/>
<path d="M44,7H20A13,13,0,0,0,7,20V44A13,13,0,0,0,20,57H44A13,13,0,0,0,57,44V20A13,13,0,0,0,44,7ZM33,55V38a1,1,0,0,0-1-1H27V31h5a1,1,0,0,0,1-1V22a5,5,0,0,1,5-5h8v6H42a3,3,0,0,0-3,3v4a1,1,0,0,0,1,1h6v6H40a1,1,0,0,0-1,1V55ZM55,44A11,11,0,0,1,44,55H41V39h6a1,1,0,0,0,1-1V30a1,1,0,0,0-1-1H41V26a1,1,0,0,1,1-1h5a1,1,0,0,0,1-1V16a1,1,0,0,0-1-1H38a7,7,0,0,0-7,7v7H26a1,1,0,0,0-1,1v8a1,1,0,0,0,1,1h5V55H20A11,11,0,0,1,9,44V20A11,11,0,0,1,20,9H44A11,11,0,0,1,55,20Z"/>
</g>
</svg>