<!DOCTYPE svg PUBLIC "-//W3C//DTD SVG 1.1//EN" "http://www.w3.org/Graphics/SVG/1.1/DTD/svg11.dtd">
<!-- Uploaded to: SVG Repo, www.svgrepo.com, Transformed by: SVG Repo Mixer Tools -->
<svg width="256px" height="256px" viewBox="-2.4 -2.4 28.80 28.80" fill="none" xmlns="http://www.w3.org/2000/svg">
<g id="SVGRepo_bgCarrier" stroke-width="0">
<path transform="translate(-2.4, -2.4), scale(0.8999999999999999)" d="M16,29.360134180635214C17.78713475330367,28.32177535897323,18.002100332571523,25.558197085880177,19.807823241468785,24.55251102886605C21.388296954113525,23.672276099989375,23.587710963470922,25.13597936832385,25.167430308645493,24.254391325723C26.704075316846435,23.396841616598856,27.435811061816107,21.561703742739567,28.09252395870086,19.929099211350223C28.76959732686698,18.245878043934887,29.4637801478038,16.39341354602461,29.03901145793821,14.629544672093013C28.614863139684044,12.868251915944521,27.15540324911548,11.535995200381425,25.785763948584812,10.350186550058428C24.60058635403063,9.324081470241552,22.530862123098405,9.52295192697533,21.646061136494538,8.228863529853996C20.155436363861313,6.048712002073307,21.26481393415784,2.4637255910141,19.236836005978347,0.7718838668303203C17.564581464144943,-0.6231954227501817,14.822145991300287,0.08499141160952883,12.775157065617629,0.8283068325658256C10.77214993331715,1.5556513096385916,9.622127309941334,3.596786722917849,7.9214314692125765,4.880804330936815C6.251300459669644,6.14174563072426,3.6701792976810794,6.474107780644142,2.785385552747403,8.370538791641586C1.8840000813848354,10.302531835831402,2.366809070781627,12.781151050167674,3.353821998690343,14.670833132138718C4.312743786094092,16.50673342121386,7.760158580224546,16.522207254115102,8.109489166802781,18.563782383044895C8.54612081455311,21.115566700823397,4.932759437595091,23.11844235177643,5.239142938837224,25.68911921798192C5.497016088037015,27.852775342988355,7.472380164073012,29.81788590392714,9.534647855906783,30.521418671873803C11.629875381418607,31.236195529571958,14.08584594104153,30.472293602002523,16,29.360134180635214" fill="#000000" strokewidth="0"/>
</g>
<g id="SVGRepo_tracerCarrier" stroke-linecap="round" stroke-linejoin="round"/>
<g id="SVGRepo_iconCarrier"> <path d="M9 22H15C20 22 22 20 22 15V9C22 4 20 2 15 2H9C4 2 2 4 2 9V15C2 20 4 22 9 22Z" stroke="#ffffff" stroke-width="1.248" stroke-linecap="round" stroke-linejoin="round"/> <path d="M12 15.5C13.933 15.5 15.5 13.933 15.5 12C15.5 10.067 13.933 8.5 12 8.5C10.067 8.5 8.5 10.067 8.5 12C8.5 13.933 10.067 15.5 12 15.5Z" stroke="#ffffff" stroke-width="1.248" stroke-linecap="round" stroke-linejoin="round"/> <path d="M17.6361 7H17.6477" stroke="#ffffff" stroke-width="1.248" stroke-linecap="round" stroke-linejoin="round"/> </g>
</svg>