<!DOCTYPE svg PUBLIC "-//W3C//DTD SVG 1.1//EN" "http://www.w3.org/Graphics/SVG/1.1/DTD/svg11.dtd">
<!-- Uploaded to: SVG Repo, www.svgrepo.com, Transformed by: SVG Repo Mixer Tools -->
<svg width="256px" height="256px" viewBox="-4.8 -4.8 57.60 57.60" id="Layer_2" data-name="Layer 2" xmlns="http://www.w3.org/2000/svg" fill="#000000" stroke="#000000" stroke-width="2.448">
<g id="SVGRepo_bgCarrier" stroke-width="0">
<path transform="translate(-4.8, -4.8), scale(1.7999999999999998)" d="M16,25.04723348385758C18.242626438944487,26.115382714011112,19.76668652456624,29.209796980981565,22.23726578008269,28.951815848450153C24.33175838280948,28.73310617843102,24.954557353181347,25.809502779089147,26.031363366040743,23.999745338627314C27.00864649167229,22.35725320269193,27.481076161898457,20.53991510709261,28.276402835576143,18.802008836204987C29.25631405965258,16.66075805511303,31.389975125564394,14.862979085603138,31.28933067220228,12.510310046276667C31.190293550636994,10.195214063666189,29.788700594760794,7.736862361404687,27.755497504204502,6.625303567323396C25.611439692270192,5.453140133702897,22.959730123475403,6.568573527876888,20.516737458119948,6.620898025514185C18.98994427300136,6.6535991823945535,17.48210567191326,7.245228539832666,16,6.877085126108593C13.905791483744643,6.356900171125577,12.395731822700327,3.79421187400595,10.255863409064187,4.072177464087703C8.320550356551085,4.3235716298255005,6.88545362022194,6.342175442025645,6.162613860334847,8.154946337456437C5.455898325993637,9.927280156230704,7.224754140474418,12.094625288392585,6.3755954453659704,13.803292465513945C5.1430161002077615,16.283474182313775,-0.20280734378707643,16.859079806729177,0.5064002810221222,19.53631303066976C1.2311340101505395,22.272156738857408,5.90284087948247,20.912341644698994,8.53460021612932,21.953457665005313C9.841362389823628,22.470408821905878,10.791946925960186,23.580813528457533,12.090181494215592,24.118821783975797C13.343350624146517,24.63815423278703,14.775303285959106,24.46391794384725,16,25.04723348385758" fill="#000000" strokewidth="0"/>
</g>
<g id="SVGRepo_tracerCarrier" stroke-linecap="round" stroke-linejoin="round"/>
<g id="SVGRepo_iconCarrier">
<defs>
<style>.cls-1{fill:none;stroke:#ffffff;stroke-linecap:round;stroke-linejoin:round;}</style>
</defs>
<path class="cls-1" d="M38.74,16.55v1c0,10.07-7.64,21.61-21.62,21.61A21.14,21.14,0,0,1,5.5,35.71a12.22,12.22,0,0,0,1.81.11,15.25,15.25,0,0,0,9.44-3.24,7.56,7.56,0,0,1-7.1-5.29,6.9,6.9,0,0,0,1.44.15,7.53,7.53,0,0,0,2-.27A7.57,7.57,0,0,1,7,19.72v-.1a7.42,7.42,0,0,0,3.44.94A7.54,7.54,0,0,1,8.05,10.5a21.58,21.58,0,0,0,15.68,7.94,6.38,6.38,0,0,1-.21-1.74,7.55,7.55,0,0,1,13.17-5.31,15.59,15.59,0,0,0,4.83-1.85,7.65,7.65,0,0,1-3.39,4.27,15.87,15.87,0,0,0,4.37-1.26,15.56,15.56,0,0,1-3.76,4Z"/>
</g>
</svg>